<?xml version="1.0" standalone="no"?>
<!DOCTYPE svg PUBLIC "-//W3C//DTD SVG 1.1//EN" "http://www.w3.org/Graphics/SVG/1.1/DTD/svg11.dtd">
  <svg width="104.99999999999999" height="95.19999999999999" viewBox="-16.8, 0, 104.99999999999999, 95.19999999999999" version="1.1" xmlns="http://www.w3.org/2000/svg">
  <defs>
    <marker id="arrow" markerUnits="userSpaceOnUse" viewBox="0 0 10 10" refX="10" refY="5" markerWidth="16.8" markerHeight="16.8" orient="auto">
      <path d="M 0 0 L 10 5 L 0 10" fill="#CC79A7"/>
    </marker>
    <marker id="arrowBackward" markerUnits="userSpaceOnUse" viewBox="0 0 10 10" refX="5" refY="5" markerWidth="16.8" markerHeight="16.8" orient="auto">
      <path d="M 0 0 L 10 5 L 0 10 z" fill="#CC79A7"/>
    </marker>
    <marker id="arrowForward" markerUnits="userSpaceOnUse" viewBox="0 0 10 10" refX="5" refY="5" markerWidth="16.8" markerHeight="16.8" orient="auto">
      <path d="M 10 0 L 0 5 L 10 10 z" fill="#CC79A7"/>
    </marker>
    <marker id="arrowBothways" markerUnits="userSpaceOnUse" viewBox="0 0 30 10" refX="15" refY="5" markerWidth="50.400000000000006" markerHeight="16.8" orient="auto">
      <path d="M 0 5 L 10 0 L 10 5 L 20 5 L 20 0 L 30 5 L 20 10 L 20 5 L 10 5 L 10 10 z" fill="#CC79A7"/>
    </marker>
    <pattern id="hatchBlack" x="10" y="10" width="10" height="10" patternUnits="userSpaceOnUse" patternTransform="rotate(45)">
      <line x1="0" y="0" x2="0" y2="10" stroke="black" stroke-width="4"></line>
    </pattern>
    <pattern id="hatchForNode" x="10" y="10" width="10" height="10" patternUnits="userSpaceOnUse" patternTransform="rotate(45)">
      <line x1="0" y="0" x2="0" y2="10" stroke="#0072B2" stroke-width="4"></line>
    </pattern>
    <pattern id="hatchForLeaf" x="10" y="10" width="10" height="10" patternUnits="userSpaceOnUse" patternTransform="rotate(45)">
      <line x1="0" y="0" x2="0" y2="10" stroke="#009E73" stroke-width="4"></line>
    </pattern>
  </defs>
<rect x="-16.8" y="0" width="104.99999999999999" height="95.19999999999999" stroke="none" fill="white" />
<text white-space='pre' alignment-baseline='text-top' style='fill: #009E73; storoke-width: 0; font-size: 32px;' x='17.299999999999997' y='67.19999999999999'><tspan x='17.299999999999997' y='67.19999999999999' style="" text-decoration="" font-family="'Noto Serif', 'Noto Serif JP', 'Noto Serif CJK JP', 'Noto Naskh Arabic', 'Noto Sans Arabic', 'Noto Serif Hebrew', 'Noto Serif Devanagari', 'Noto Serif Thai', 'Noto Serif Khmer', 'DejaVu Serif', 'Noto Sans Math', OpenMoji, 'OpenMoji Color', 'OpenMoji Black', 'Noto Emoji', serif">X</tspan>
</text>
</svg>